#!OML:ASF H:\Pregnant\Project 1\Capture day 1\Session 1\femalepreg.ASF
:FULLY-SPECIFIED
:DEGREES
1133
root 5.85251 15.6364 27.2105 554.68 -82.1203 -541.765
lowerback -21.0879 0.641482 -0.733579
upperback -4.69365 0.611975 0.52897
thorax 6.65522 0.135821 1.13282
lowerneck -13.6129 13.1166 12.9013
upperneck 28.5736 19.6334 -14.1944
head 15.0932 7.9756 -4.33387
rclavicle 2.86747e-014 -3.18055e-015
rhumerus -46.7781 36.9126 -101.503
rradius 113.19
rwrist -21.6362
rhand 3.97753 -17.9548
rfingers 7.12502
rthumb 29.3942 -45.6501
lclavicle 2.86747e-014 -3.18055e-015
lhumerus -43.75 -42.2324 99.4487
lradius 109.206
lwrist 31.0878
lhand -0.217525 -13.7889
lfingers 7.12502
lthumb 25.382 -345.458
rfemur -21.3808 23.0586 8.95768
rtibia 27.4464
rfoot -14.5485 -23.79
rtoes -14.6495
lfemur -8.50239 -11.8478 -16.9699
ltibia 2.14687e-014
lfoot -1.40877 16.4032
ltoes -12.7969
1134
root 5.85243 15.6364 27.2055 554.545 -82.1115 -541.639
lowerback -21.1218 0.647604 -0.710117
upperback -4.72814 0.613291 0.510971
thorax 6.63605 0.135831 1.10035
lowerneck -13.5405 13.0803 12.9172
upperneck 28.6616 19.5483 -14.0705
head 15.0844 7.95651 -4.31167
rclavicle 1.22501e-014 -5.96354e-016
rhumerus -46.6342 37.2502 -101.565
rradius 113.224
rwrist -22.3288
rhand 4.26051 -17.6434
rfingers 7.12502
rthumb 29.6644 -45.291
lclavicle 1.22501e-014 -5.96354e-016
lhumerus -43.6941 -42.5724 99.4455
lradius 109.46
lwrist 30.8224
lhand -0.829023 -14.4988
lfingers 7.12502
lthumb 24.7961 -346.086
rfemur -21.3636 23.0982 8.9954
rtibia 27.4329
rfoot -14.5477 -23.8038
rtoes -14.6312
lfemur -8.48412 -11.8306 -16.9373
ltibia -1.19271e-014
lfoot -1.41814 16.4063
ltoes -12.7971
1135
root 5.85228 15.6364 27.2005 554.382 -82.1031 -541.488
lowerback -21.149 0.663584 -0.67327
upperback -4.76396 0.625712 0.479026
thorax 6.61199 0.14153 1.04803
lowerneck -13.4796 13.0414 12.9476
upperneck 28.7607 19.4516 -13.9329
head 15.081 7.93487 -4.28823
rclavicle 7.90169e-015 7.95139e-016
rhumerus -46.5255 37.5888 -101.669
rradius 113.237
rwrist -22.868
rhand 4.33041 -17.2234
rfingers 7.12502
rthumb 29.7311 -44.8591
lclavicle 7.90169e-015 7.95139e-016
lhumerus -43.6461 -42.9284 99.4385
lradius 109.714
lwrist 30.4017
lhand -1.38842 -15.1339
lfingers 7.12502
lthumb 24.2599 -346.649
rfemur -21.3404 23.16 9.0362
rtibia 27.4169
rfoot -14.5435 -23.8381
rtoes -14.6089
lfemur -8.46055 -11.8131 -16.9021
ltibia -1.35174e-014
lfoot -1.43097 16.4081
ltoes -12.786
1136
root 5.85206 15.6364 27.1956 554.202 -82.0959 -541.321
lowerback -21.1721 0.68732 -0.630307
upperback -4.79941 0.647434 0.441882
thorax 6.58617 0.151881 0.989012
lowerneck -13.4356 12.9989 12.975
upperneck 28.8689 19.3475 -13.7874
head 15.0829 7.90965 -4.26197
rclavicle 2.1593e-014 8.54774e-015
rhumerus -46.4484 37.9399 -101.795
rradius 113.229
rwrist -23.1872
rhand 4.29226 -16.7254
rfingers 7.12502
rthumb 29.6947 -44.3675
lclavicle 2.1593e-014 8.54774e-015
lhumerus -43.5999 -43.2917 99.4357
lradius 109.962
lwrist 29.7971
lhand -1.9443 -15.7413
lfingers 7.12502
lthumb 23.7268 -347.186
rfemur -21.3133 23.1493 9.08933
rtibia 27.3982
rfoot -14.5381 -23.8087
rtoes -14.6077
lfemur -8.4349 -11.7966 -16.8651
ltibia 1.90833e-014
lfoot -1.44424 16.4099
ltoes -12.7734
1137
root 5.85179 15.6364 27.1909 554.001 -82.0892 -541.136
lowerback -21.1913 0.715192 -0.585017
upperback -4.83557 0.673687 0.408937
thorax 6.55748 0.164427 0.934349
lowerneck -13.4048 12.9534 12.9811
upperneck 28.9855 19.2421 -13.6357
head 15.088 7.88119 -4.22969
rclavicle 1.36664e-015 -6.55989e-015
rhumerus -46.4091 38.3109 -101.933
rradius 113.206
rwrist -23.256
rhand 4.20872 -16.1389
rfingers 7.12502
rthumb 29.6149 -43.7952
lclavicle 1.36664e-015 -6.55989e-015
lhumerus -43.5559 -43.6387 99.4492
lradius 110.195
lwrist 28.9999
lhand -2.36788 -16.2314
lfingers 7.12502
lthumb 23.3205 -347.624
rfemur -21.2837 23.1601 9.14322
rtibia 27.3775
rfoot -14.5278 -23.8011
rtoes -14.5976
lfemur -8.40677 -11.7802 -16.826
ltibia -2.38542e-015
lfoot -1.45809 16.4112
ltoes -12.762
1138
root 5.85144 15.6365 27.1864 553.798 -82.0826 -540.946
lowerback -21.2085 0.741018 -0.542569
upperback -4.87261 0.697082 0.384935
thorax 6.52673 0.175462 0.890183
lowerneck -13.3827 12.9084 12.9684
upperneck 29.1054 19.1424 -13.4864
head 15.0959 7.85207 -4.19381
rclavicle 1.50331e-015 -8.94531e-016
rhumerus -46.411 38.7157 -102.082
rradius 113.171
rwrist -23.0935
rhand 4.11927 -15.485
rfingers 7.12502
rthumb 29.5296 -43.1565
lclavicle 1.50331e-015 -8.94531e-016
lhumerus -43.5175 -43.9526 99.4781
lradius 110.414
lwrist 28.0304
lhand -2.7185 -16.6398
lfingers 7.12502
lthumb 22.9841 -347.99
rfemur -21.2541 23.1252 9.20219
rtibia 27.3566
rfoot -14.5208 -23.7502
rtoes -14.5863
lfemur -8.37891 -11.7641 -16.7873
ltibia -2.38542e-015
lfoot -1.46873 16.4133
ltoes -12.7663
1139
root 5.85101 15.6367 27.1821 553.605 -82.0746 -540.766
lowerback -21.2228 0.761535 -0.506854
upperback -4.91204 0.713828 0.373091
thorax 6.49181 0.183052 0.861179
lowerneck -13.362 12.8657 12.9373
upperneck 29.2249 19.0536 -13.3463
head 15.1052 7.8241 -4.15636
rclavicle 1.38777e-014 -7.25564e-015
rhumerus -46.4549 39.15 -102.24
rradius 113.123
rwrist -22.757
rhand 4.05677 -14.7846
rfingers 7.12502
rthumb 29.4699 -42.4666
lclavicle 1.38777e-014 -7.25564e-015
lhumerus -43.4916 -44.2193 99.5311
lradius 110.609
lwrist 26.9308
lhand -2.99727 -16.9831
lfingers 7.12502
lthumb 22.7166 -348.3
rfemur -21.2261 23.0326 9.26463
rtibia 27.3367
rfoot -14.5182 -23.644
rtoes -14.5857
lfemur -8.35215 -11.7474 -16.7514
ltibia -1.03368e-014
lfoot -1.47643 16.4157
ltoes -12.7863
